<svg width="40" height="40" viewBox="0 0 40 40" fill="none" xmlns="http://www.w3.org/2000/svg">
<path d="M4 9.5C4 9.10218 4.15804 8.72064 4.43934 8.43934C4.72064 8.15804 5.10218 8 5.5 8H34.5C34.8978 8 35.2794 8.15804 35.5607 8.43934C35.842 8.72064 36 9.10218 36 9.5C36 9.89782 35.842 10.2794 35.5607 10.5607C35.2794 10.842 34.8978 11 34.5 11H5.5C5.10218 11 4.72064 10.842 4.43934 10.5607C4.15804 10.2794 4 9.89782 4 9.5ZM4 19.5C4 19.1022 4.15804 18.7206 4.43934 18.4393C4.72064 18.158 5.10218 18 5.5 18H34.5C34.8978 18 35.2794 18.158 35.5607 18.4393C35.842 18.7206 36 19.1022 36 19.5C36 19.8978 35.842 20.2794 35.5607 20.5607C35.2794 20.842 34.8978 21 34.5 21H5.5C5.10218 21 4.72064 20.842 4.43934 20.5607C4.15804 20.2794 4 19.8978 4 19.5ZM5.5 28C5.10218 28 4.72064 28.158 4.43934 28.4393C4.15804 28.7206 4 29.1022 4 29.5C4 29.8978 4.15804 30.2794 4.43934 30.5607C4.72064 30.842 5.10218 31 5.5 31H34.5C34.8978 31 35.2794 30.842 35.5607 30.5607C35.842 30.2794 36 29.8978 36 29.5C36 29.1022 35.842 28.7206 35.5607 28.4393C35.2794 28.158 34.8978 28 34.5 28H5.5Z" fill="black"/>
</svg>
